<svg width="20" height="15" viewBox="0 0 20 15" fill="none" xmlns="http://www.w3.org/2000/svg">
<path d="M9.68951 0.447121C10.4505 0.114921 11.6227 -0.194617 12.9708 0.152199C14.3371 0.503954 15.2024 1.35135 15.6407 1.90122C16.0019 1.90608 16.358 1.85705 16.7003 1.75571C17.5248 1.51178 18.0864 1.0183 18.4122 0.647316L18.9112 0.0779803L18.9795 0.831887C19.0283 1.36657 19.0167 2.41986 18.3868 3.46372C18.0938 3.94879 17.6966 4.3773 17.2305 4.7147C17.301 4.91896 17.3564 5.12839 17.3965 5.3397C17.4551 5.64881 17.4817 5.96311 17.4747 6.27818C18.0466 6.23304 18.5854 6.42085 18.9463 6.80747C19.5506 7.45489 19.4459 8.42234 19.0928 9.04673C18.692 9.75496 17.8719 10.1639 16.9981 10.1141C16.5999 11.0933 15.7178 12.6779 13.918 13.8094C12.3644 14.7861 10.8181 14.9998 9.76275 14.9999H9.61529C8.56001 14.9998 7.0136 14.786 5.46002 13.8094C3.66021 12.6779 2.7784 11.0933 2.37994 10.1141C1.50589 10.1639 0.686843 9.75484 0.286189 9.04673C-0.0672105 8.42231 -0.171954 7.45493 0.432674 6.80747C0.793297 6.42108 1.33162 6.23306 1.90338 6.27818C1.89663 5.96309 1.92298 5.64882 1.9815 5.3397C2.0216 5.1284 2.07709 4.91896 2.14752 4.7147C1.68143 4.37759 1.2852 3.94877 0.992244 3.46372C0.36187 2.41977 0.349712 1.3666 0.398494 0.831887L0.466853 0.0779803L0.966853 0.647316C1.29264 1.01831 1.85424 1.51185 2.67877 1.75571C3.02057 1.85695 3.37634 1.90582 3.73736 1.90122C4.17533 1.35135 5.04077 0.503982 6.40728 0.152199C7.75548 -0.194613 8.92855 0.114873 9.68951 0.447121ZM12.5811 9.60825C13.5072 9.41803 14.4197 9.15286 15.3028 8.81528L15.6885 8.66782L15.6895 8.66489L15.3028 8.81236C14.1245 9.26274 12.8945 9.58569 11.6485 9.77134C11.0011 9.86781 10.3458 9.92755 9.68951 9.95005C9.03347 9.92756 8.37817 9.8678 7.73053 9.77134C6.48449 9.5857 5.25452 9.26274 4.07623 8.81236L3.68951 8.66489V8.66782L3.69439 8.66978L3.75201 9.077C3.78712 9.32318 3.83691 9.56115 3.89947 9.79087C3.92397 9.88038 3.94992 9.96863 3.97857 10.0555C4.15529 10.5943 4.41062 11.0832 4.74322 11.5155C5.38438 12.3493 6.30219 12.9544 7.38287 13.3016C7.74645 13.4184 8.12936 13.5059 8.52545 13.5633C8.90269 13.6145 9.27562 13.6414 9.64068 13.6444H9.74517C10.1136 13.6414 10.49 13.6143 10.8712 13.5624C11.2648 13.5046 11.6448 13.4168 12.0059 13.3006C13.0864 12.9535 14.0034 12.3489 14.6446 11.5155C15.1687 10.8345 15.5022 10.0138 15.6358 9.077L15.6944 8.66685L15.3067 8.81528C14.4222 9.15333 13.5087 9.41823 12.5811 9.60825ZM8.30572 10.3397C8.67655 10.3811 9.04965 10.4117 9.42291 10.4295V13.1532C9.10712 13.1434 8.79809 13.1149 8.49908 13.0672C8.32399 13.0418 8.14774 13.0103 7.97076 12.9735V12.9618L8.05084 10.3094C8.13558 10.3202 8.22071 10.3302 8.30572 10.3397ZM11.417 12.9618V12.9735C11.2409 13.01 11.0642 13.0418 10.8897 13.0672C10.5905 13.1149 10.2811 13.1434 9.9649 13.1532V10.4295C10.3382 10.4117 10.7113 10.3811 11.0821 10.3397C11.1673 10.3302 11.253 10.3195 11.3379 10.3084L11.417 12.9618ZM6.19732 9.97446C6.63163 10.0769 7.07026 10.1629 7.5108 10.2323L7.43365 12.8055C6.95104 12.6414 6.50647 12.4211 6.11236 12.1473L6.19732 9.97446ZM13.2764 12.1463C12.8825 12.4205 12.4376 12.6413 11.9551 12.8055L11.878 10.2323C12.3182 10.1629 12.7572 10.0769 13.1915 9.97446L13.2764 12.1463ZM4.30963 9.4188C4.75389 9.57646 5.20485 9.71653 5.66021 9.83872L5.58599 11.7215C5.42045 11.5657 5.26812 11.3973 5.12994 11.2176C4.73553 10.705 4.46027 10.101 4.30963 9.4188ZM15.0782 9.4188C14.9275 10.1011 14.6524 10.7049 14.2579 11.2176C14.1197 11.3972 13.9673 11.5658 13.8018 11.7215L13.7276 9.83872C14.1829 9.71656 14.6339 9.57643 15.0782 9.4188ZM1.26666 8.03501C1.34711 8.02987 1.60374 8.02961 1.84967 8.19028C1.80498 8.21322 1.75914 8.2418 1.71392 8.27622C1.55856 8.39407 1.47177 8.5356 1.42681 8.63364L1.77154 8.79185C1.79832 8.73342 1.8501 8.64907 1.94244 8.57896C2.00922 8.5284 2.07772 8.49944 2.13482 8.48423C2.23502 8.64807 2.26436 8.80732 2.27252 8.88462L2.64947 8.84458C2.63264 8.68706 2.5549 8.28799 2.19732 7.97837C1.82715 7.65786 1.40662 7.64635 1.24322 7.65611L1.26666 8.03501ZM18.1465 7.65611C17.9829 7.64639 17.5624 7.65799 17.1924 7.97837C16.835 8.28798 16.7571 8.68708 16.7403 8.84458L17.1172 8.88462C17.1254 8.80735 17.1549 8.64822 17.2549 8.48423C17.312 8.49969 17.3806 8.52818 17.4473 8.57896C17.5398 8.64909 17.5914 8.73339 17.6182 8.79185L17.9629 8.63364C17.8984 8.49326 17.7989 8.36945 17.6758 8.27622C17.6303 8.24175 17.5848 8.21322 17.5401 8.19028C17.786 8.02973 18.0425 8.03016 18.1231 8.03501L18.1465 7.65611ZM15.3985 6.17271C15.1717 6.16762 14.9451 6.18416 14.7208 6.21177C13.9257 6.3171 13.1294 6.57309 12.3965 6.95005C12.3858 6.94474 12.375 6.93977 12.3643 6.93443C12.3747 6.93967 12.3851 6.94483 12.3956 6.95005C11.7058 7.30494 11.0721 7.7674 10.5499 8.31333C10.3658 8.51974 10.6018 8.82564 10.8487 8.69907C11.0399 8.5967 11.2267 8.49134 11.4141 8.3895C12.3359 7.87984 13.2907 7.44912 14.2794 7.08872C14.6782 6.93944 15.0793 6.80516 15.4805 6.65318C15.5727 6.61871 15.6393 6.53094 15.6417 6.42661C15.6446 6.28948 15.5356 6.17596 15.3985 6.17271ZM3.99224 6.17271C3.89488 6.17528 3.80281 6.23439 3.76568 6.33091C3.71605 6.45949 3.78218 6.60487 3.91119 6.65318C4.11376 6.73144 4.31582 6.80141 4.51568 6.8729C4.98603 7.04047 5.45414 7.21306 5.9151 7.40122C5.5753 7.51907 5.23044 7.61847 4.87994 7.69419C5.2307 7.61859 5.57602 7.5201 5.91607 7.4022C6.03755 7.4518 6.15895 7.5015 6.27935 7.55357C7.05654 7.88444 7.79895 8.28918 8.5401 8.6981C8.63051 8.74791 8.74699 8.73669 8.8272 8.66294C8.92728 8.5705 8.93323 8.41381 8.84088 8.31333C8.5328 7.982 8.18091 7.69464 7.80865 7.43833C7.54547 7.25966 7.27011 7.09747 6.98638 6.95103C7.06735 6.91047 7.14644 6.86823 7.22467 6.82603C7.14598 6.86855 7.06494 6.90824 6.98345 6.94907C6.25982 6.576 5.47696 6.31483 4.66998 6.21177C4.44545 6.18415 4.21921 6.16757 3.99224 6.17271ZM0.648494 7.97837C0.648781 7.99275 0.649715 8.00705 0.650447 8.02134C0.649732 8.00705 0.648762 7.99275 0.648494 7.97837ZM0.651424 7.84556C0.657528 7.77491 0.670285 7.70412 0.690486 7.63462C0.6704 7.70419 0.657413 7.77485 0.651424 7.84556ZM17.337 6.95396C17.2837 7.09955 17.2177 7.23991 17.1387 7.37388C17.0528 7.51991 16.9508 7.65891 16.837 7.78599L16.7862 7.84361L16.837 7.78696C16.9507 7.6599 17.0528 7.52087 17.1387 7.37486C17.2177 7.2409 17.2836 7.10051 17.337 6.95493C17.3922 6.94389 17.4473 6.93559 17.502 6.93052L17.337 6.95396ZM0.766658 7.44907C0.753048 7.47454 0.740562 7.50012 0.729549 7.52622C0.740589 7.50017 0.753033 7.47449 0.766658 7.44907ZM0.846736 7.32505C0.86568 7.30019 0.886086 7.27557 0.90826 7.25181C1.07662 7.0717 1.32139 6.96099 1.59478 6.9315L1.46002 6.95298C1.2411 6.9995 1.04755 7.10071 0.907283 7.25083C0.885064 7.27464 0.865702 7.30013 0.846736 7.32505ZM8.34478 6.10825C8.11582 6.28019 7.87154 6.44849 7.60943 6.60728C7.49648 6.6757 7.38003 6.74233 7.2608 6.80747C7.65702 6.59137 8.01709 6.35438 8.34478 6.10825ZM10.9444 6.04185C10.9561 6.05088 10.9677 6.06018 10.9795 6.06919C10.9677 6.06017 10.9561 6.05089 10.9444 6.04185ZM8.62799 5.88657C8.6666 5.8551 8.70465 5.82353 8.74224 5.79185C8.70466 5.82352 8.6666 5.8551 8.62799 5.88657ZM10.5606 5.72837C10.5786 5.74381 10.5961 5.75984 10.6143 5.77525C10.5961 5.75983 10.5786 5.74383 10.5606 5.72837ZM9.38775 5.19517C9.27099 5.31431 9.14702 5.43358 9.01666 5.55259C9.26516 5.3257 9.48977 5.09783 9.68951 4.87388C9.78259 4.97823 9.8809 5.08356 9.98443 5.18931C9.88088 5.08343 9.78263 4.97731 9.68951 4.8729C9.59457 4.97936 9.49354 5.08721 9.38775 5.19517ZM10.2432 5.44224C10.2636 5.46145 10.284 5.48066 10.3047 5.49986C10.2841 5.48065 10.2635 5.46146 10.2432 5.44224ZM12.5626 9.61216C12.5687 9.6109 12.5749 9.60953 12.5811 9.60825C12.5749 9.60952 12.5687 9.6109 12.5626 9.61216ZM0.719783 7.55357C0.70934 7.58058 0.698419 7.60714 0.690486 7.63462C0.69846 7.60719 0.709305 7.58054 0.719783 7.55357ZM0.651424 7.84556C0.64966 7.86639 0.650172 7.88728 0.649471 7.90806C0.650204 7.88729 0.649625 7.86637 0.651424 7.84556ZM0.831111 7.34556C0.814355 7.36889 0.799372 7.39274 0.785213 7.41685C0.799379 7.39279 0.814364 7.36884 0.831111 7.34556Z" fill="black"/>
</svg>
