<svg width="3000" height="2323" viewBox="0 0 3000 2323" fill="none" xmlns="http://www.w3.org/2000/svg">
<path d="M2859.44 1122.53C2819.71 1079.99 2752.45 1062.79 2683.94 1076.51C2675.68 1099.08 2665.44 1120.81 2653.19 1141.58C2639.89 1164.19 2624.16 1185.63 2606.54 1205.31L2591.94 1221.59L2570.08 1222.05C2560.05 1222.26 2550.07 1222.34 2540.08 1222.34C2361.57 1222.34 2188.21 1189.2 2024.34 1123.75C1788.43 1029.48 1617.68 886.332 1500 754.387C1382.32 886.332 1211.56 1029.48 975.698 1123.75C811.784 1189.2 638.43 1222.34 459.957 1222.34C449.93 1222.34 439.945 1222.26 429.918 1222.05L408.06 1221.59L393.502 1205.31C375.839 1185.67 360.148 1164.19 346.807 1141.58C334.556 1120.81 324.319 1099.08 316.096 1076.51C247.627 1062.75 180.291 1079.99 140.56 1122.53C72.7207 1195.24 105.277 1303.69 131.96 1350.89C179.536 1435.01 284.631 1479.56 393.376 1461.73L434.449 1455.02L448.755 1494.08C497.883 1627.83 621.606 1878.25 898.922 2052.57C1123.59 2193.79 1347.37 2222.61 1497.23 2221.39L1502.81 2221.35C1652.67 2222.61 1876.41 2193.79 2101.07 2052.57C2378.39 1878.25 2502.16 1627.83 2551.24 1494.08L2565.59 1455.02L2606.62 1461.73C2715.41 1479.56 2820.46 1435.01 2868.04 1350.89C2894.76 1303.69 2927.28 1195.24 2859.44 1122.53ZM2419.8 1404.76C2399.12 1549.79 2347.51 1676.79 2266.37 1782.22C2167.11 1911.27 2025.14 2004.83 1857.82 2058.57C1801.9 2076.57 1743.16 2090.08 1682.2 2099.01C1625.82 2107.24 1567.54 2111.56 1507.89 2111.73C1506.29 2111.77 1504.7 2111.77 1503.1 2111.77H1499.79C1497.1 2111.77 1494.38 2111.73 1491.69 2111.73C1432.62 2111.52 1374.89 2107.28 1319.01 2099.18C1257.67 2090.29 1198.52 2076.7 1142.21 2058.61C974.901 2004.87 832.887 1911.31 733.623 1782.22C652.484 1676.79 600.881 1549.79 580.197 1404.76L571.177 1341.24L631.088 1364.15C813.504 1433.87 1003.85 1483.8 1196.75 1512.54C1297.02 1527.47 1398.43 1536.75 1500 1540.23C1601.61 1536.75 1703.01 1527.47 1803.24 1512.54C1996.15 1483.8 2186.49 1433.87 2368.91 1364.15L2428.86 1341.24L2419.8 1404.76Z" fill="black"/>
<path d="M2837.12 251.411C2830.07 319.586 2809.64 402.194 2760.17 484.13C2715.83 557.55 2653.36 621.11 2579.48 667.889L2543.77 690.46L2559.84 729.561C2575.24 766.901 2586.82 805.876 2594.29 845.355C2603.05 891.756 2606.33 939.038 2603.94 986.404C2597.81 1023.62 2585.18 1058.65 2566.43 1090.45C2560.09 1101.23 2553 1111.64 2545.28 1121.62H2540.12C2374.45 1121.62 2213.64 1090.91 2061.68 1030.2C1836.22 940.129 1674.78 801.68 1565.11 676.028C1540.94 648.296 1519.25 621.194 1500 595.35C1480.74 621.194 1459.05 648.296 1434.88 676.028C1325.26 801.68 1163.82 940.129 938.316 1030.2C786.358 1090.91 625.548 1121.62 459.914 1121.62H454.712C446.992 1111.64 439.944 1101.23 433.567 1090.45C414.855 1058.65 402.269 1023.66 396.06 986.446C393.71 939.08 396.941 891.756 405.709 845.355C413.219 805.876 424.798 766.901 440.153 729.561L456.222 690.46L420.519 667.889C346.638 621.11 284.168 557.55 239.823 484.13C190.359 402.194 169.927 319.628 162.879 251.411C219.978 296.973 293.943 341.109 386.075 368.379C457.271 389.44 531.488 398.082 606.669 394.139L630.289 392.88L644.386 373.917C698.381 301.42 818.537 172.16 1017.06 121.101C1157.69 84.8951 1284.35 101.887 1382.06 132.261C1428.42 146.693 1468.24 164.104 1500 180.299C1531.76 164.104 1571.57 146.693 1617.93 132.261C1715.64 101.887 1842.3 84.8951 1982.93 121.101C2181.46 172.16 2301.61 301.42 2355.61 373.917L2369.71 392.88L2393.33 394.139C2468.55 398.082 2542.77 389.44 2613.92 368.379C2706.05 341.109 2780.02 296.973 2837.12 251.411Z" fill="black" stroke="black" stroke-width="20.977" stroke-miterlimit="10"/>
<path d="M2933.06 1053.85C2877.18 993.977 2793.77 964.945 2705.21 971.951C2706.3 923.159 2702.27 874.492 2693.21 826.622C2687 793.898 2678.4 761.468 2667.49 729.834C2739.65 677.601 2801.03 611.314 2846.39 536.216C2943.93 374.609 2945.82 211.617 2938.26 128.842L2927.61 12.1256L2850.29 100.229C2799.86 157.664 2713.01 234.063 2585.35 271.821C2532.36 287.512 2477.32 295.106 2421.39 294.351C2353.55 209.226 2219.59 78.0356 2008.02 23.5792C1799.3 -30.1221 1617.8 17.7475 1499.99 69.1832C1382.19 17.7475 1200.69 -30.1221 991.973 23.5792C780.398 78.0356 646.439 209.226 578.641 294.351C522.716 295.064 467.631 287.512 414.685 271.821C287.018 234.063 200.131 157.664 149.703 100.229L72.3812 12.1256L61.7248 128.842C54.1731 211.617 56.0611 374.609 153.646 536.216C198.999 611.314 260.336 677.643 332.497 729.834C321.588 761.468 312.988 793.898 306.779 826.622C297.717 874.492 293.731 923.159 294.78 971.951C206.215 964.945 122.81 993.977 66.9691 1053.85C-26.6304 1154.07 -10.3942 1303.77 44.3139 1400.43C106.322 1510.1 233.149 1573.36 368.493 1565.64C430.166 1717.22 566.642 1962.61 845.343 2137.81C1085.87 2289.02 1325.21 2322.12 1488.58 2322.12C1492.44 2322.12 1496.26 2322.08 1499.99 2322.08C1503.73 2322.08 1507.55 2322.12 1511.41 2322.12C1674.78 2322.12 1914.12 2289.02 2154.65 2137.81C2433.35 1962.61 2569.87 1717.22 2631.5 1565.64C2766.8 1573.36 2893.67 1510.1 2955.72 1400.43C3010.38 1303.77 3026.62 1154.07 2933.06 1053.85ZM239.82 484.151C190.356 402.215 169.924 319.649 162.876 251.432C219.976 296.994 293.941 341.13 386.072 368.4C457.268 389.461 531.485 398.103 606.667 394.16L630.287 392.901L644.383 373.938C698.378 301.441 818.535 172.181 1017.06 121.122C1157.69 84.916 1284.35 101.907 1382.06 132.282C1428.42 146.714 1468.24 164.125 1499.99 180.32C1531.75 164.125 1571.57 146.714 1617.93 132.282C1715.64 101.907 1842.3 84.916 1982.93 121.122C2181.45 172.181 2301.61 301.441 2355.61 373.938L2369.7 392.901L2393.32 394.16C2468.55 398.103 2542.76 389.461 2613.92 368.4C2706.05 341.13 2780.01 296.994 2837.11 251.432C2830.07 319.607 2809.63 402.215 2760.17 484.151C2715.82 557.571 2653.35 621.131 2579.47 667.91L2543.77 690.481L2559.84 729.582C2575.24 766.922 2586.82 805.897 2594.28 845.376C2603.05 891.777 2606.32 939.059 2603.93 986.425C2597.81 1023.64 2585.18 1058.67 2566.43 1090.47C2560.09 1101.25 2553 1111.66 2545.28 1121.64H2540.12C2374.44 1121.64 2213.63 1090.93 2061.68 1030.23C1836.21 940.15 1674.78 801.701 1565.11 676.049C1540.94 648.317 1519.25 621.215 1499.99 595.371C1480.74 621.215 1459.05 648.317 1434.88 676.049C1325.26 801.701 1163.82 940.15 938.313 1030.23C786.356 1090.93 625.546 1121.64 459.911 1121.64H454.709C446.989 1111.66 439.941 1101.25 433.564 1090.47C414.852 1058.67 402.266 1023.68 396.057 986.467C393.708 939.101 396.938 891.777 405.706 845.376C413.216 805.897 424.796 766.922 440.151 729.582L456.219 690.481L420.516 667.91C346.635 621.131 284.165 557.571 239.82 484.151ZM2868.03 1350.88C2820.46 1435 2715.4 1479.55 2606.62 1461.72L2565.59 1455.01L2551.24 1494.07C2502.15 1627.82 2378.39 1878.24 2101.07 2052.56C1876.41 2193.78 1652.67 2222.6 1502.81 2221.39C1501.88 2221.39 1500.96 2221.39 1500.04 2221.34C1499.11 2221.39 1498.19 2221.39 1497.23 2221.39C1347.37 2222.6 1123.58 2193.78 898.919 2052.56C621.602 1878.24 497.88 1627.82 448.751 1494.07L434.445 1455.01L393.372 1461.72C284.627 1479.55 179.532 1435 131.956 1350.88C105.273 1303.68 72.7168 1195.23 140.557 1122.52C180.287 1079.98 247.623 1062.74 316.092 1076.5C324.315 1099.07 334.552 1120.8 346.803 1141.57C360.144 1164.18 375.835 1185.67 393.498 1205.3L408.056 1221.58L429.914 1222.04C439.941 1222.25 449.926 1222.33 459.953 1222.33C638.426 1222.33 811.78 1189.19 975.695 1123.74C1211.56 1029.47 1382.31 886.323 1499.99 754.377C1617.68 886.323 1788.43 1029.47 2024.34 1123.74C2188.21 1189.19 2361.56 1222.33 2540.08 1222.33C2550.06 1222.33 2560.05 1222.25 2570.08 1222.04L2591.93 1221.58L2606.53 1205.3C2624.15 1185.62 2639.89 1164.18 2653.19 1141.57C2665.44 1120.8 2675.67 1099.07 2683.94 1076.5C2752.45 1062.78 2819.7 1079.98 2859.43 1122.52C2927.27 1195.23 2894.76 1303.68 2868.03 1350.88Z" fill="black"/>
<path d="M2808.44 1184.23L2804.88 1242.88C2792.46 1242.13 2752.69 1242.04 2714.55 1266.97C2721.51 1270.53 2728.6 1274.89 2735.69 1280.26C2754.74 1294.7 2770.05 1313.83 2780.04 1335.56L2726.67 1360.06C2722.52 1351 2714.55 1337.95 2700.2 1327.09C2689.84 1319.2 2679.27 1314.88 2670.41 1312.49C2654.89 1337.91 2650.44 1362.54 2649.19 1374.49L2590.79 1368.28C2593.39 1343.91 2605.39 1282.07 2660.81 1234.12C2718.12 1184.48 2783.14 1182.72 2808.44 1184.23Z" fill="white"/>
<path d="M409.216 1368.28L350.774 1374.49C349.516 1362.54 345.069 1337.91 329.546 1312.53C320.693 1314.88 310.121 1319.24 299.758 1327.09C285.41 1337.95 277.481 1351 273.327 1360.06L219.92 1335.56C226.884 1320.37 240.225 1298.51 264.307 1280.26C271.355 1274.89 278.487 1270.53 285.452 1266.97C247.357 1242.04 207.585 1242.09 195.125 1242.88L191.559 1184.23C216.857 1182.72 281.844 1184.48 339.153 1234.12C394.574 1282.07 406.615 1343.91 409.216 1368.28Z" fill="white"/>
<path d="M2369.99 1367.97C2138.4 1455.7 1943.95 1498.74 1806.63 1521.48C1650.44 1547.37 1553.48 1549.42 1501.75 1549.21C1435.67 1548.92 1345.72 1544.39 1197.54 1518.8C1143.42 1509.44 917.918 1472.1 630.616 1367.89C607.038 1359.33 587.655 1352.03 574.691 1347.04C576.999 1365.75 579.894 1384.84 583.46 1404.22C611.149 1555.17 670.305 1680.74 733.53 1779.88H735.334C770.323 1814.99 945.901 1987.76 1143.97 2053.46C1228.55 2081.53 1320.17 2095.54 1320.17 2095.54C1397.29 2107.33 1466.72 2109.05 1492.02 2109.59C1495.12 2109.68 1497.64 2109.72 1499.36 2109.72H1503.47C1504.48 2109.51 1506.03 2109.21 1507.83 2108.88C1592.88 2092.64 1655.93 2092.6 1681.06 2091.64C1733.17 2089.58 1773.87 2076.15 1855.3 2049.22C2115.5 1963.17 2260.95 1777.57 2260.95 1777.57C2371.54 1636.43 2404.9 1488 2416.43 1405.06C2418.49 1386.47 2420.55 1367.84 2422.6 1349.26C2405.06 1355.47 2387.53 1361.72 2369.99 1367.93V1367.97Z" fill="black"/>
<path d="M2368.91 1364.12C2186.49 1433.85 1996.15 1483.77 1803.24 1512.51C1703.01 1527.45 1601.61 1536.72 1500 1540.2C1398.43 1536.72 1297.02 1527.45 1196.75 1512.51C1003.85 1483.77 813.503 1433.85 631.086 1364.12L571.176 1341.21L580.196 1404.73C600.879 1549.76 652.483 1676.76 733.622 1782.19C832.885 1911.28 974.9 2004.84 1142.21 2058.58C1198.52 2076.67 1257.67 2090.26 1319.01 2099.15C1377.45 2107.08 1435.14 2111.24 1491.69 2111.7C1494.38 2111.7 1497.1 2111.74 1499.79 2111.74H1503.1C1504.7 2111.74 1506.29 2111.74 1507.88 2111.7C1564.94 2111.24 1623.17 2107.04 1682.2 2098.99C1743.16 2090.05 1801.9 2076.54 1857.82 2058.54C2025.14 2004.8 2167.11 1911.24 2266.37 1782.19C2347.51 1676.76 2399.11 1549.76 2419.8 1404.73L2428.86 1341.21L2368.91 1364.12ZM864.057 1814.03C838.423 1789.91 814.845 1763.94 793.449 1736.12C732.363 1656.75 689.78 1563.27 666.454 1457.63C735.258 1482.05 805.028 1503.74 875.553 1522.66L864.057 1814.03ZM1150.06 1981.89C1075.3 1956.47 1006.49 1922.32 945.448 1879.9L958.664 1543.6C1025.92 1559.46 1093.76 1572.8 1161.97 1583.54L1150.06 1981.89ZM1458.04 2035.72C1409.12 2034.21 1361.38 2029.76 1315.06 2022.38C1287.92 2018.43 1260.65 2013.61 1233.21 2007.9V2006.01L1245.55 1595.41C1258.72 1597.09 1271.89 1598.68 1285.11 1600.15C1342.54 1606.57 1400.23 1611.23 1458.04 1614V2035.72ZM1685.14 2022.34C1638.78 2029.72 1590.95 2034.21 1541.95 2035.72V1614C1599.76 1611.23 1657.45 1606.57 1714.89 1600.15C1728.1 1598.68 1741.32 1597.09 1754.49 1595.37L1766.78 2006.01V2007.9C1739.47 2013.57 1712.2 2018.39 1685.14 2022.34ZM1849.98 1981.89L1838.06 1583.54C1906.24 1572.8 1974.08 1559.46 2041.33 1543.6L2054.55 1879.86C1993.54 1922.32 1924.7 1956.47 1849.98 1981.89ZM2206.55 1736.12C2185.15 1763.94 2161.57 1789.91 2135.94 1814.03L2124.44 1522.66C2194.97 1503.74 2264.74 1482.05 2333.54 1457.63C2310.21 1563.27 2267.63 1656.75 2206.55 1736.12Z" fill="white"/>
<path d="M2382.88 954.909C2347.72 954.112 2312.73 956.713 2277.95 960.992C2038.94 992.626 1799.09 1112.03 1632.28 1286.39C1603.71 1318.36 1640.21 1365.72 1678.47 1346.05C1708.09 1330.19 1736.95 1313.87 1765.99 1298.09C1908.71 1219.18 2056.52 1152.55 2209.61 1096.76C2271.37 1073.64 2333.33 1052.91 2395.47 1029.38C2409.77 1024.05 2420.09 1010.41 2420.43 994.22C2420.89 972.991 2404.07 955.412 2382.84 954.909H2382.88Z" fill="white"/>
<path d="M1207.95 1150.83C1063.17 1052.54 896.151 983.228 722.042 960.992C687.262 956.713 652.272 954.112 617.114 954.909C602.011 955.286 587.872 964.516 582.125 979.494C574.405 999.422 584.516 1021.91 604.528 1029.38C635.91 1041.5 667.166 1052.24 698.128 1063.32C790.217 1096.13 881.761 1129.98 971.207 1168.66C1091.53 1219.89 1206.44 1282.53 1321.19 1345.84C1335.2 1353.56 1353.11 1351.88 1365.53 1340.42C1381.06 1326.12 1382.06 1301.91 1367.76 1286.35C1320.06 1235.04 1265.64 1190.48 1208 1150.79L1207.95 1150.83Z" fill="white"/>
</svg>
